# xmcd
#
# Track frame offsets:
#	150
#	16961
#	40084
#	56717
#
# Disc length: 1061 seconds
#
# Revision: 0
# Processed by: cddbd v1.5.2PL0 Copyright (c) Steve Scherf et al.
# Submitted via: audiograbber 1.83.01
#
DISCID=2a042304
DTITLE=Achim Reichel - Sa-Lo-Me
DYEAR=2005
DGENRE=Vocal
TTITLE0=Sa-Lo-Me
TTITLE1=Sa-Lo-Me
TTITLE2=Sa-Lo- Me Karaoke
TTITLE3=Liebe wo bist du hin
EXTD=YEAR: 2005
EXTT0=
EXTT1=
EXTT2=
EXTT3=
PLAYORDER=
